<svg width="200" height="200" viewBox="0 0 200 200" xmlns="http://www.w3.org/2000/svg">
  <defs>
    <!-- Epic gradient for cat body -->
    <linearGradient id="catGradient" x1="0%" y1="0%" x2="100%" y2="100%">
      <stop offset="0%" style="stop-color:#FFD700;stop-opacity:1" />
      <stop offset="50%" style="stop-color:#FFA500;stop-opacity:1" />
      <stop offset="100%" style="stop-color:#FF6B35;stop-opacity:1" />
    </linearGradient>
    
    <!-- Glow effect -->
    <filter id="megaGlow">
      <feGaussianBlur stdDeviation="5" result="coloredBlur"/>
      <feMerge>
        <feMergeNode in="coloredBlur"/>
        <feMergeNode in="coloredBlur"/>
        <feMergeNode in="SourceGraphic"/>
      </feMerge>
    </filter>
    
    <!-- Eye gradient -->
    <radialGradient id="eyeGradient">
      <stop offset="0%" style="stop-color:#00FFFF;stop-opacity:1" />
      <stop offset="50%" style="stop-color:#00BFFF;stop-opacity:1" />
      <stop offset="100%" style="stop-color:#0080FF;stop-opacity:1" />
    </radialGradient>
  </defs>
  
  <!-- Background glow circle -->
  <circle cx="100" cy="100" r="95" fill="url(#catGradient)" opacity="0.2" filter="url(#megaGlow)"/>
  
  <!-- Left Ear -->
  <path d="M 55 45 L 30 10 L 75 50 Z" fill="url(#catGradient)" stroke="#1F2937" stroke-width="4" stroke-linejoin="round"/>
  <path d="M 55 45 L 40 20 L 68 48 Z" fill="#FFE5B4"/>
  
  <!-- Right Ear -->
  <path d="M 145 45 L 170 10 L 125 50 Z" fill="url(#catGradient)" stroke="#1F2937" stroke-width="4" stroke-linejoin="round"/>
  <path d="M 145 45 L 160 20 L 132 48 Z" fill="#FFE5B4"/>
  
  <!-- Head -->
  <circle cx="100" cy="105" r="65" fill="url(#catGradient)" stroke="#1F2937" stroke-width="5" filter="url(#megaGlow)"/>
  
  <!-- Left Eye Background -->
  <ellipse cx="75" cy="95" rx="20" ry="24" fill="#FFFFFF" stroke="#1F2937" stroke-width="3"/>
  
  <!-- Right Eye Background -->
  <ellipse cx="125" cy="95" rx="20" ry="24" fill="#FFFFFF" stroke="#1F2937" stroke-width="3"/>
  
  <!-- Left Eye with AMAZING CYAN GLOW -->
  <ellipse cx="75" cy="95" rx="14" ry="18" fill="url(#eyeGradient)" filter="url(#megaGlow)"/>
  <ellipse cx="72" cy="92" rx="7" ry="10" fill="#00FFFF" opacity="0.8"/>
  <circle cx="70" cy="88" r="5" fill="#FFFFFF"/>
  
  <!-- Right Eye with AMAZING CYAN GLOW -->
  <ellipse cx="125" cy="95" rx="14" ry="18" fill="url(#eyeGradient)" filter="url(#megaGlow)"/>
  <ellipse cx="122" cy="92" rx="7" ry="10" fill="#00FFFF" opacity="0.8"/>
  <circle cx="120" cy="88" r="5" fill="#FFFFFF"/>
  
  <!-- Nose - Bright Pink -->
  <path d="M 100 115 L 93 125 L 107 125 Z" fill="#FF1493" stroke="#1F2937" stroke-width="3"/>
  
  <!-- Mouth - Big smile -->
  <path d="M 100 125 Q 85 140 75 135" fill="none" stroke="#1F2937" stroke-width="4" stroke-linecap="round"/>
  <path d="M 100 125 Q 115 140 125 135" fill="none" stroke="#1F2937" stroke-width="4" stroke-linecap="round"/>
  
  <!-- Whiskers - THICK AND BOLD -->
  <line x1="35" y1="100" x2="10" y2="95" stroke="#1F2937" stroke-width="3" stroke-linecap="round"/>
  <line x1="35" y1="110" x2="5" y2="110" stroke="#1F2937" stroke-width="3" stroke-linecap="round"/>
  <line x1="35" y1="120" x2="10" y2="130" stroke="#1F2937" stroke-width="3" stroke-linecap="round"/>
  
  <line x1="165" y1="100" x2="190" y2="95" stroke="#1F2937" stroke-width="3" stroke-linecap="round"/>
  <line x1="165" y1="110" x2="195" y2="110" stroke="#1F2937" stroke-width="3" stroke-linecap="round"/>
  <line x1="165" y1="120" x2="190" y2="130" stroke="#1F2937" stroke-width="3" stroke-linecap="round"/>
  
  <!-- Cheek blush - HOT PINK -->
  <ellipse cx="50" cy="115" rx="12" ry="10" fill="#FF69B4" opacity="0.6"/>
  <ellipse cx="150" cy="115" rx="12" ry="10" fill="#FF69B4" opacity="0.6"/>
  
  <!-- Sparkles around the cat -->
  <circle cx="30" cy="50" r="4" fill="#FFFF00" opacity="0.9"/>
  <circle cx="170" cy="50" r="4" fill="#FFFF00" opacity="0.9"/>
  <circle cx="25" cy="140" r="3" fill="#FFFF00" opacity="0.9"/>
  <circle cx="175" cy="140" r="3" fill="#FFFF00" opacity="0.9"/>
</svg>